<svg xmlns="http://www.w3.org/2000/svg" viewBox="0 0 512 512" preserveAspectRatio="none" role="img" aria-label="Grain texture">
  <rect width="512" height="512" fill="#ffffff" fill-opacity="0"/>
  <g fill="#000000" fill-opacity="0.34">
    <circle cx="15" cy="22" r="1"/><circle cx="40" cy="68" r="1"/><circle cx="78" cy="19" r="1"/>
    <circle cx="111" cy="53" r="1"/><circle cx="156" cy="31" r="1"/><circle cx="182" cy="76" r="1"/>
    <circle cx="228" cy="42" r="1"/><circle cx="260" cy="16" r="1"/><circle cx="302" cy="60" r="1"/>
    <circle cx="340" cy="24" r="1"/><circle cx="386" cy="74" r="1"/><circle cx="422" cy="35" r="1"/>
    <circle cx="466" cy="54" r="1"/><circle cx="500" cy="26" r="1"/><circle cx="28" cy="112" r="1"/>
    <circle cx="63" cy="151" r="1"/><circle cx="100" cy="124" r="1"/><circle cx="146" cy="170" r="1"/>
    <circle cx="191" cy="132" r="1"/><circle cx="236" cy="162" r="1"/><circle cx="272" cy="118" r="1"/>
    <circle cx="320" cy="146" r="1"/><circle cx="362" cy="121" r="1"/><circle cx="406" cy="163" r="1"/>
    <circle cx="450" cy="136" r="1"/><circle cx="488" cy="171" r="1"/><circle cx="32" cy="206" r="1"/>
    <circle cx="74" cy="232" r="1"/><circle cx="122" cy="198" r="1"/><circle cx="163" cy="248" r="1"/>
    <circle cx="210" cy="214" r="1"/><circle cx="250" cy="238" r="1"/><circle cx="296" cy="201" r="1"/>
    <circle cx="336" cy="244" r="1"/><circle cx="380" cy="210" r="1"/><circle cx="426" cy="252" r="1"/>
    <circle cx="470" cy="224" r="1"/><circle cx="506" cy="246" r="1"/><circle cx="44" cy="284" r="1"/>
    <circle cx="88" cy="320" r="1"/><circle cx="136" cy="292" r="1"/><circle cx="172" cy="338" r="1"/>
    <circle cx="216" cy="304" r="1"/><circle cx="258" cy="348" r="1"/><circle cx="304" cy="310" r="1"/>
    <circle cx="348" cy="336" r="1"/><circle cx="392" cy="300" r="1"/><circle cx="438" cy="344" r="1"/>
    <circle cx="482" cy="312" r="1"/><circle cx="18" cy="366" r="1"/><circle cx="58" cy="392" r="1"/>
    <circle cx="104" cy="362" r="1"/><circle cx="148" cy="410" r="1"/><circle cx="192" cy="378" r="1"/>
    <circle cx="236" cy="420" r="1"/><circle cx="280" cy="384" r="1"/><circle cx="324" cy="430" r="1"/>
    <circle cx="368" cy="398" r="1"/><circle cx="412" cy="442" r="1"/><circle cx="456" cy="404" r="1"/>
    <circle cx="500" cy="436" r="1"/><circle cx="28" cy="468" r="1"/><circle cx="72" cy="496" r="1"/>
    <circle cx="118" cy="462" r="1"/><circle cx="160" cy="500" r="1"/><circle cx="206" cy="474" r="1"/>
    <circle cx="248" cy="506" r="1"/><circle cx="296" cy="470" r="1"/><circle cx="338" cy="504" r="1"/>
    <circle cx="384" cy="478" r="1"/><circle cx="430" cy="508" r="1"/><circle cx="474" cy="482" r="1"/>
  </g>
</svg>
